<svg width="60" height="60" viewBox="0 0 60 60" fill="none" xmlns="http://www.w3.org/2000/svg">
<mask id="mask0_90_169" style="mask-type:alpha" maskUnits="userSpaceOnUse" x="0" y="0" width="60" height="60">
<ellipse cx="29.9999" cy="30.1188" rx="29.5282" ry="29.3263" fill="#D9D9D9"/>
</mask>
<g mask="url(#mask0_90_169)">
<path d="M30.2784 12.3194C30.4462 12.1239 30.5972 11.8862 30.8404 11.7794C31.1057 11.735 31.2462 12.0288 31.4035 12.1937C31.8795 12.869 32.3324 13.5622 32.8546 14.2037C34.096 16.0278 35.6687 17.5897 36.9479 19.3821C37.0894 19.5659 36.9489 19.7836 36.8892 19.9696C36.6103 19.2922 36.129 18.7258 35.6132 18.2185C35.5377 18.3136 35.4622 18.4087 35.3888 18.506C35.3898 18.209 35.4465 17.8677 35.2252 17.6299C35.047 17.3308 34.6831 17.4914 34.4147 17.5062C34.1358 16.832 33.6735 16.2687 33.2908 15.6568C32.5967 14.4161 31.7191 13.2949 30.9736 12.0869C30.5322 12.4843 30.1547 12.9451 29.8223 13.4365C29.6714 13.67 29.4522 13.8423 29.2163 13.9797C29.4019 13.3297 29.8884 12.8468 30.2784 12.3194Z" fill="#DBEDFF"/>
<path d="M26.3865 22.6086C26.809 22.244 27.1246 21.7748 27.4926 21.3584C27.6457 21.4429 27.7967 21.5328 27.9456 21.6279C27.7306 21.9206 27.4958 22.1986 27.242 22.4585C26.6517 23.0672 26.1369 23.7425 25.5728 24.3756C25.2111 24.775 24.8766 25.2136 24.4132 25.5011C24.2109 25.0773 24.581 24.7539 24.8347 24.4696C25.0538 24.2657 24.9668 23.8937 25.2279 23.7225C25.6546 23.3949 25.9765 22.9552 26.3865 22.6086Z" fill="#DBEDFF"/>
<path d="M26.1588 0.801112C27.1842 0.608774 28.2306 0.662671 29.2655 0.560161C29.7499 0.516832 30.2375 0.509435 30.7229 0.545366C31.8941 0.637308 33.0726 0.680637 34.2322 0.888827C36.6154 1.19319 38.9221 1.92344 41.1586 2.7879C42.8445 3.51076 44.4854 4.35831 46.0005 5.40137C47.6613 6.46241 49.1963 7.71895 50.5981 9.10864C51.1329 9.62648 51.5732 10.2341 52.1048 10.7562C52.6071 11.2466 52.9793 11.8458 53.4186 12.3911C54.8267 14.1908 55.9486 16.1987 56.9122 18.2701C57.3043 19.2011 57.6094 20.1649 57.968 21.1097C58.3004 21.9689 58.4419 22.883 58.6705 23.7718C59.0532 25.2302 59.2283 26.7319 59.3803 28.2294C59.6183 30.3757 59.5785 32.5496 59.2744 34.6875C58.7953 38.6674 57.5591 42.567 55.5491 46.0333C55.027 47.0532 54.2899 47.9345 53.6514 48.8783C53.0957 49.7089 52.3806 50.4117 51.7127 51.1472C51.4663 51.4452 51.0721 51.5034 50.7187 51.5784C50.8236 51.6175 50.9284 51.6576 51.0343 51.701C50.0435 52.3847 49.0212 53.0283 47.9497 53.5768C47.1916 53.9953 46.5531 54.6104 45.7468 54.9454C44.7517 55.3607 43.8542 55.98 42.8477 56.3699C42.0592 56.6828 41.3232 57.1182 40.5169 57.3855C39.2304 57.7861 37.9669 58.2658 36.6437 58.5364C35.8542 58.6801 35.0888 58.9401 34.2899 59.0331C33.2057 59.1705 32.1352 59.4452 31.0364 59.4431C29.7772 59.4368 28.519 59.4304 27.2597 59.4463C26.5877 59.4621 25.9355 59.273 25.2697 59.2191C24.7182 59.1747 24.1677 59.1176 23.6257 59.0035C22.6149 58.79 21.5863 58.641 20.5987 58.3282C19.9853 58.1306 19.351 58.008 18.7481 57.7808C17.2466 57.1541 15.7022 56.5887 14.3371 55.682C13.7531 55.2772 13.0998 54.9845 12.5389 54.5459C11.9895 54.1063 11.3646 53.7691 10.8508 53.2851C10.1074 52.5876 9.27809 51.9895 8.58608 51.2381C8.24952 50.8619 7.87206 50.5279 7.46105 50.2405C7.16538 49.5367 6.56459 49.0505 6.12213 48.4481C4.93104 46.8735 3.90771 45.1668 3.10246 43.3607C2.7271 42.4022 2.26891 41.4764 1.97533 40.4872C1.49827 39.0827 1.17324 37.6328 0.883853 36.1797C0.793682 34.9908 0.508493 33.8252 0.460262 32.631C0.416226 30.7625 0.437196 28.8888 0.655282 27.031C0.897484 25.6941 1.13235 24.352 1.52553 23.0489C1.6891 22.5248 1.79814 21.9858 1.93969 21.4553C2.45554 19.7485 3.15594 18.1052 3.94021 16.5084C5.04532 14.3081 6.4828 12.297 8.04611 10.4064C9.42697 8.8698 10.9536 7.46426 12.6354 6.26795C13.2466 5.81564 13.8621 5.36756 14.531 5.00402C16.0786 4.08671 17.6597 3.20851 19.3499 2.585C21.5182 1.65924 23.8291 1.11921 26.1588 0.801112ZM28.4529 0.865577C25.7877 0.996621 23.135 1.48698 20.6112 2.36518C16.2327 3.92714 12.152 6.43387 8.93943 9.83149C5.31898 13.7015 2.82881 18.585 1.60836 23.7475C1.10299 25.7184 0.806265 27.7454 0.751743 29.7808C0.641651 30.7805 0.780053 31.7824 0.788441 32.7842C0.917406 35.1842 1.38294 37.5557 2.06026 39.8574C3.30273 43.8711 5.41229 47.6333 8.32606 50.6558C8.51164 50.8344 8.68254 51.0489 8.92894 51.1472C9.1313 51.1757 9.33575 51.1694 9.54126 51.1726C12.931 51.1631 16.3208 51.1694 19.7116 51.1641C29.9512 51.1884 40.1919 51.1462 50.4325 51.1641C50.7344 51.1546 51.0438 51.1916 51.3415 51.1197C51.6299 50.9517 51.828 50.6674 52.0587 50.4307C53.9481 48.3034 55.5114 45.8801 56.6721 43.2751C58.0037 40.2621 58.7974 37.0188 59.135 33.7427C59.2608 32.3203 59.3342 30.8904 59.2482 29.4637C59.0018 25.32 58.0267 21.2048 56.2705 17.4447C53.9397 12.7578 50.4503 8.62568 46.1033 5.7237C42.4902 3.30996 38.3434 1.69622 34.0445 1.10019C32.6993 0.906793 31.3426 0.849724 29.9869 0.796884C29.4752 0.815906 28.9656 0.866634 28.4529 0.865577Z" fill="#0671E0"/>
<path d="M24.0513 7.02881C24.3732 7.10173 24.5284 7.39552 24.6217 7.68614C24.7496 8.05496 24.9656 8.38469 25.233 8.66685C25.1816 8.84545 25.125 9.02194 25.0736 9.20054C25.8159 9.05893 26.5719 8.96593 27.3279 8.97227C27.1654 9.26078 26.8183 9.30516 26.5321 9.38971C25.6954 9.57148 24.8849 9.87901 24.0272 9.94876C23.3667 10.0079 22.7355 10.2478 22.0718 10.2764C22.0927 10.1274 22.1703 10.0291 22.3024 9.98046C22.877 9.7226 23.5344 9.67293 24.0733 9.33687C24.2799 9.22167 24.1698 8.95219 24.174 8.76514C24.087 8.19129 24.0021 7.61111 24.0513 7.02881Z" fill="#DBEDFF"/>
<path d="M14.6987 10.5303C14.8486 10.5683 15.0174 10.6138 15.0678 10.7839C15.3131 11.3271 15.5375 11.8788 15.8027 12.4135C16.4465 12.4484 17.0788 12.2021 17.7215 12.3247C17.083 12.9007 16.1299 12.7601 15.3676 13.0592C15.0657 13.2093 14.7249 13.093 14.4062 13.1564C13.8347 13.2611 13.2507 13.3128 12.6709 13.2558C12.782 13 13.0798 12.9916 13.3115 12.926C13.8232 12.8256 14.3411 12.7157 14.7983 12.4526C14.705 11.8175 14.6704 11.1718 14.6987 10.5303Z" fill="#DBEDFF"/>
<path d="M30.4011 11.6851C30.5437 11.5339 30.6821 11.3131 30.9128 11.3057C31.241 11.386 31.4245 11.7083 31.6184 11.9598C32.5034 13.2734 33.3925 14.5902 34.4148 15.8013C35.7484 17.4541 37.058 19.1271 38.3854 20.7862C38.7576 21.21 39.0669 21.7543 39.63 21.9424C40.28 22.1633 40.9783 22.2267 41.6053 22.5205C42.0027 22.7054 42.399 22.9802 42.5668 23.4061C42.8153 24.056 43.0166 24.7239 43.264 25.3738C43.3574 25.6465 43.6048 25.8092 43.8208 25.9783C44.9364 26.8312 46.0813 27.6428 47.1875 28.5083C47.5461 28.7683 47.8942 29.0832 48.3293 29.2047C48.9154 29.0726 49.4197 28.2304 50.0541 28.6711C52.1343 30.1971 54.268 31.6555 56.4792 32.9839C56.7749 33.1804 57.1891 33.2851 57.3034 33.6676C56.2098 33.8092 55.0973 33.6792 53.9964 33.675C37.8161 33.675 21.6347 33.675 5.4533 33.6761C4.39642 33.731 3.3322 33.7987 2.27637 33.6993C2.3246 33.4816 2.43783 33.284 2.63705 33.1751C4.40166 32.1025 6.12328 30.9453 7.7149 29.6222C8.10284 29.2956 8.57466 29.6814 8.9972 29.7173C9.33377 29.6116 9.62211 29.396 9.90835 29.1942C10.8132 28.5263 11.6593 27.7759 12.6072 27.1662C13.0349 26.8903 13.338 26.4708 13.6221 26.0555C15.3542 23.6481 17.0224 21.1952 18.7702 18.7995C19.0407 18.4475 19.2976 18.0153 19.7526 17.8906C20.041 17.8061 20.2696 18.0565 20.4792 18.215C21.3505 18.9918 22.2543 19.7294 23.1749 20.447C23.7642 19.9556 24.1941 19.3088 24.7445 18.7783C26.1023 17.284 27.2756 15.6333 28.56 14.0766C29.1912 13.2935 29.7878 12.4829 30.4011 11.6851ZM30.2785 12.3191C29.8884 12.8465 29.4019 13.3294 29.2163 13.9794C29.4522 13.842 29.6714 13.6697 29.8224 13.4362C30.1547 12.9448 30.5322 12.484 30.9736 12.0866C31.7191 13.2946 32.5967 14.4158 33.2908 15.6565C33.6735 16.2684 34.1359 16.8317 34.4148 17.5059C34.6832 17.4911 35.047 17.3305 35.2253 17.6296C35.4465 17.8674 35.3899 18.2087 35.3888 18.5057C35.4622 18.4084 35.5377 18.3133 35.6132 18.2182C36.129 18.7255 36.6103 19.2919 36.8892 19.9693C36.949 19.7833 37.0895 19.5656 36.9479 19.3818C35.6688 17.5894 34.096 16.0275 32.8546 14.2034C32.3325 13.5619 31.8795 12.8687 31.4035 12.1934C31.2462 12.0285 31.1057 11.7347 30.8405 11.7791C30.5972 11.8858 30.4462 12.1236 30.2785 12.3191ZM29.3359 14.5405C27.9561 16.4322 26.6234 18.3567 25.2614 20.261C24.2014 21.7173 23.154 23.1905 21.923 24.5072C20.4971 25.9878 18.8551 27.2539 17.0821 28.2832C16.7414 28.0528 16.3943 27.8288 16.0137 27.6703C16.3503 28.13 16.754 28.5358 17.1828 28.9088C17.7416 28.4555 18.2239 27.9102 18.8205 27.5054C19.566 26.9876 20.2958 26.4475 21.0706 25.9751C21.491 25.6909 21.9775 25.4985 22.3351 25.1265C23.3647 24.0856 24.3796 23.0298 25.4271 22.0069C25.9251 21.5334 26.3519 20.9744 26.9411 20.6076C27.4433 20.9289 28.0158 21.1339 28.4803 21.5144C28.1123 21.9783 27.6751 22.3788 27.3007 22.8364C25.9146 24.3656 24.6051 25.9646 23.1844 27.461C23.0103 27.6534 22.8667 27.87 22.7251 28.0866C22.8656 28.1934 22.9914 28.3371 23.1686 28.3857C23.436 28.3043 23.6467 28.1057 23.847 27.9186C25.6441 26.0607 27.2986 24.0697 29.0874 22.2024C29.4827 21.7923 29.8276 21.3263 30.2764 20.9712C30.4515 20.857 30.6748 20.7038 30.8866 20.8158C31.1298 20.9078 31.3259 21.0895 31.5157 21.2629C32.3618 22.0629 33.1733 22.8988 33.9954 23.7242C35.0512 24.7123 35.9351 25.8832 37.0675 26.7878C37.1461 26.5088 36.9374 26.2943 36.7844 26.0903C36.1993 25.3759 35.6415 24.6372 35.1026 23.8869C34.853 23.4927 34.5416 23.0964 34.5249 22.6092C35.0135 22.66 35.2871 23.1133 35.6803 23.3532C35.3112 22.5553 34.658 21.9456 34.2051 21.2005C33.2352 19.6216 32.1542 18.1168 31.1477 16.5611C30.8069 16.0497 30.4315 15.554 30.203 14.977C30.4336 14.7466 30.7041 14.5585 31.0103 14.4444C32.6732 16.7028 34.1778 19.0785 35.8837 21.3051C36.0808 21.5704 36.3073 21.8135 36.5652 22.0206C36.2381 21.0716 35.6635 20.2388 35.1917 19.3606C34.1233 17.4108 32.9186 15.5413 31.6709 13.7057C31.4182 13.3072 31.1634 12.9057 30.8342 12.5664C30.2585 13.1625 29.8203 13.8716 29.3359 14.5405ZM15.3385 24.6298C14.8604 25.3337 14.2973 25.9773 13.8685 26.7149C14.0583 26.5997 14.2533 26.4898 14.4211 26.3408C15.6908 25.191 16.8127 23.888 18.0541 22.7096C18.615 22.2256 18.9977 23.3141 19.5849 23.1123C20.0986 22.9791 20.5034 22.6177 20.9532 22.3567C21.1115 22.251 21.3233 22.2721 21.4732 22.3841C21.7542 22.568 22.0184 22.7783 22.3173 22.9358C22.4924 22.7117 22.6979 22.4317 22.5626 22.1347C22.3026 21.5852 21.7741 21.2428 21.3956 20.7841C20.8074 20.0761 20.1049 19.4674 19.588 18.7001C18.1327 20.6478 16.7424 22.6441 15.3385 24.6298ZM26.6024 21.3876C26.0499 21.9244 25.5267 22.493 24.9794 23.0372C24.4688 23.6259 23.8386 24.0993 23.3595 24.7165C24.3304 24.1279 25.1933 23.3807 26.0153 22.5987C26.442 22.2066 26.9128 21.8515 27.2378 21.3633C27.0292 21.2914 26.7734 21.1751 26.6024 21.3876ZM26.3865 22.6082C25.9765 22.9548 25.6546 23.3944 25.2279 23.722C24.9668 23.8932 25.0538 24.2652 24.8347 24.4692C24.5809 24.7535 24.2108 25.0769 24.4132 25.5006C24.8766 25.2132 25.2111 24.7746 25.5728 24.3751C26.1369 23.7421 26.6517 23.0668 27.242 22.4581C27.4958 22.1981 27.7306 21.9202 27.9456 21.6275C27.7967 21.5323 27.6457 21.4425 27.4926 21.358C27.1246 21.7744 26.809 22.2436 26.3865 22.6082ZM19.0376 24.019C17.9754 25.0483 17.0444 26.2045 16.0211 27.2708C16.2979 27.2814 16.5789 27.4018 16.8536 27.3553C17.3642 26.8692 17.7962 26.3049 18.2785 25.7913C18.8363 25.0917 19.5136 24.4692 19.9057 23.6523C19.5817 23.6713 19.2599 23.7696 19.0376 24.019ZM39.4821 26.1707C40.5097 27.6386 41.6431 29.0283 42.7849 30.4074C43.3353 30.9506 43.7663 31.6312 44.4321 32.0465C44.2066 31.6734 43.9456 31.3247 43.6635 30.9939C42.5584 29.7067 41.5865 28.3096 40.4373 27.0605C40.1595 26.7223 39.8397 26.4201 39.4821 26.1707Z" fill="#3586C5"/>
<path d="M37.7467 12.2324C37.9858 11.9513 38.3559 11.7283 38.7302 11.8752C39.352 12.3719 39.5869 13.1846 40.108 13.7626C40.5515 14.0025 41.0862 13.9634 41.5654 14.1008C42.3895 14.3259 43.2062 14.5838 44.0461 14.7455C44.347 14.8247 44.7056 14.8163 44.9205 15.0794C43.8962 15.202 42.8634 15.0604 41.8359 15.0783C40.2275 15.0794 38.6201 15.0794 37.0128 15.0794C36.045 15.1196 35.0752 15.1682 34.1074 15.1354C34.51 14.7159 35.1454 14.7359 35.5942 14.3904C36.4099 13.7774 37.0631 12.9827 37.7467 12.2324Z" fill="#DBEDFF"/>
<path d="M7.93916 35.4049C19.482 35.3923 31.0259 35.4113 42.5688 35.3954C45.7164 35.4028 48.8639 35.3849 52.0126 35.4028C52.0168 35.5973 52.0178 35.7928 52.0178 35.9893C47.3656 36.0263 42.7124 35.9883 38.0603 36.0126C35.8595 36.075 33.6556 36.0559 31.4548 36.0073C26.3171 36.0094 21.1795 35.9999 16.0419 36.002C13.3431 36.1141 10.6401 36.0189 7.94021 35.9915C7.93812 35.796 7.93812 35.6004 7.93916 35.4049Z" fill="#3586C5"/>
<path d="M28.453 0.865568C28.9657 0.866625 29.4753 0.815897 29.9869 0.796875C31.3426 0.849715 32.6994 0.906784 34.0446 1.10018C38.3434 1.69622 42.4902 3.30995 46.1033 5.72369C50.4504 8.62568 53.9398 12.7578 56.2706 17.4447C58.0268 21.2048 59.0019 25.32 59.2483 29.4637C59.3343 30.8904 59.2609 32.3203 59.135 33.7427C58.7974 37.0188 58.0037 40.2621 56.6721 43.2751C55.5115 45.8801 53.9482 48.3034 52.0588 50.4307C51.8281 50.6674 51.6299 50.9517 51.3416 51.1197C51.0438 51.1916 50.7345 51.1546 50.4326 51.1641C40.1919 51.1462 29.9513 51.1884 19.7117 51.1641C16.3209 51.1694 12.9311 51.1631 9.54133 51.1726C9.33583 51.1694 9.13137 51.1757 8.92901 51.1472C8.68262 51.0489 8.51171 50.8344 8.32613 50.6558C5.41237 47.6333 3.3028 43.8711 2.06033 39.8574C1.38301 37.5557 0.917478 35.1842 0.788513 32.7842C0.780125 31.7823 0.641723 30.7805 0.751815 29.7808C0.806337 27.7454 1.10306 25.7184 1.60843 23.7475C2.82888 18.585 5.31905 13.7015 8.9395 9.83149C12.1521 6.43386 16.2328 3.92713 20.6113 2.36517C23.135 1.48697 25.7877 0.996612 28.453 0.865568ZM24.0514 7.02885C24.0021 7.61114 24.0871 8.19133 24.1741 8.76517C24.1699 8.95223 24.28 9.22171 24.0734 9.3369C23.5345 9.67297 22.8771 9.72264 22.3025 9.9805C22.1704 10.0291 22.0928 10.1274 22.0719 10.2764C22.7356 10.2479 23.3668 10.008 24.0273 9.94879C24.885 9.87904 25.6955 9.57151 26.5322 9.38974C26.8184 9.3052 27.1654 9.26081 27.328 8.97231C26.572 8.96596 25.816 9.05896 25.0737 9.20058C25.1251 9.02198 25.1817 8.84549 25.2331 8.66689C24.9657 8.38472 24.7497 8.055 24.6218 7.68618C24.5285 7.39556 24.3733 7.10177 24.0514 7.02885ZM14.6989 10.53C14.6706 11.1715 14.7052 11.8172 14.7985 12.4524C14.3413 12.7155 13.8234 12.8254 13.3117 12.9258C13.08 12.9913 12.7822 12.9998 12.6711 13.2555C13.2509 13.3126 13.8349 13.2608 14.4063 13.1562C14.7251 13.0928 15.0658 13.209 15.3678 13.059C16.1301 12.7599 17.0831 12.9004 17.7217 12.3245C17.0789 12.2019 16.4467 12.4481 15.8029 12.4133C15.5377 11.8785 15.3133 11.3269 15.0679 10.7837C15.0176 10.6135 14.8488 10.5681 14.6989 10.53ZM30.4011 11.6851C29.7877 12.483 29.1911 13.2936 28.5599 14.0767C27.2755 15.6333 26.1023 17.2841 24.7445 18.7784C24.194 19.3089 23.7641 19.9557 23.1749 20.4471C22.2543 19.7295 21.3505 18.9919 20.4792 18.2151C20.2695 18.0566 20.0409 17.8061 19.7526 17.8907C19.2976 18.0154 19.0407 18.4476 18.7702 18.7995C17.0223 21.1953 15.3542 23.6481 13.6221 26.0555C13.3379 26.4709 13.0349 26.8904 12.6071 27.1662C11.6593 27.776 10.8132 28.5263 9.9083 29.1942C9.62206 29.3961 9.33373 29.6117 8.99716 29.7174C8.57462 29.6814 8.1028 29.2957 7.71485 29.6222C6.12324 30.9454 4.40162 32.1026 2.637 33.1752C2.43779 33.2841 2.32456 33.4817 2.27632 33.6994C3.33216 33.7987 4.39638 33.7311 5.45326 33.6761C21.6346 33.6751 37.816 33.6751 53.9964 33.6751C55.0973 33.6793 56.2098 33.8093 57.3033 33.6677C57.189 33.2851 56.7749 33.1805 56.4792 32.9839C54.2679 31.6555 52.1343 30.1971 50.0541 28.6711C49.4197 28.2304 48.9154 29.0727 48.3293 29.2048C47.8942 29.0833 47.5461 28.7683 47.1875 28.5084C46.0813 27.6429 44.9364 26.8312 43.8208 25.9784C43.6048 25.8093 43.3573 25.6465 43.264 25.3739C43.0166 24.724 42.8153 24.0561 42.5668 23.4061C42.399 22.9802 42.0027 22.7055 41.6053 22.5205C40.9783 22.2267 40.28 22.1633 39.6299 21.9425C39.0669 21.7543 38.7576 21.2101 38.3854 20.7863C37.058 19.1271 35.7484 17.4542 34.4147 15.8014C33.3924 14.5903 32.5033 13.2735 31.6184 11.9599C31.4244 11.7084 31.2409 11.386 30.9128 11.3057C30.6821 11.3131 30.5437 11.534 30.4011 11.6851ZM37.7468 12.2325C37.0632 12.9829 36.41 13.7776 35.5943 14.3905C35.1455 14.7361 34.5101 14.716 34.1075 15.1356C35.0753 15.1683 36.0451 15.1197 37.0129 15.0796C38.6202 15.0796 40.2276 15.0796 41.836 15.0785C42.8635 15.0605 43.8962 15.2022 44.9206 15.0796C44.7057 14.8164 44.3471 14.8249 44.0462 14.7456C43.2063 14.5839 42.3896 14.3261 41.5654 14.101C41.0863 13.9636 40.5516 14.0027 40.108 13.7628C39.5869 13.1847 39.3521 12.372 38.7303 11.8753C38.356 11.7284 37.9859 11.9514 37.7468 12.2325ZM7.93923 35.4051C7.93819 35.6006 7.93819 35.7961 7.94028 35.9916C10.6402 36.0191 13.3432 36.1142 16.042 36.0022C21.1796 36 26.3172 36.0096 31.4548 36.0074C33.6556 36.0561 35.8596 36.0751 38.0603 36.0127C42.7125 35.9884 47.3657 36.0265 52.0179 35.9895C52.0179 35.7929 52.0168 35.5974 52.0126 35.403C48.864 35.385 45.7164 35.403 42.5689 35.3956C31.026 35.4114 19.4821 35.3924 7.93923 35.4051Z" fill="#FDEFDC"/>
<path d="M29.3358 14.5405C29.8202 13.8716 30.2585 13.1624 30.8341 12.5664C31.1633 12.9056 31.4181 13.3072 31.6708 13.7056C32.9185 15.5413 34.1232 17.4108 35.1917 19.3606C35.6635 20.2388 36.238 21.0716 36.5652 22.0206C36.3072 21.8134 36.0808 21.5704 35.8837 21.3051C34.1778 19.0784 32.6732 16.7027 31.0103 14.4443C30.7041 14.5585 30.4336 14.7466 30.2029 14.977C30.4315 15.554 30.8069 16.0496 31.1476 16.5611C32.1542 18.1167 33.2352 19.6216 34.205 21.2005C34.658 21.9455 35.3112 22.5553 35.6802 23.3532C35.2871 23.1133 35.0134 22.6599 34.5248 22.6092C34.5416 23.0964 34.853 23.4927 35.1025 23.8869C35.6415 24.6372 36.1993 25.3759 36.7843 26.0903C36.9374 26.2943 37.146 26.5088 37.0674 26.7878C35.935 25.8832 35.0512 24.7122 33.9953 23.7241C33.1733 22.8988 32.3618 22.0628 31.5156 21.2628C31.3259 21.0895 31.1298 20.9078 30.8865 20.8158C30.6747 20.7038 30.4514 20.857 30.2763 20.9712C29.8276 21.3262 29.4826 21.7923 29.0873 22.2023C27.2986 24.0697 25.6441 26.0607 23.847 27.9186C23.6467 28.1056 23.436 28.3043 23.1686 28.3857C22.9914 28.3371 22.8656 28.1934 22.7251 28.0866C22.8666 27.87 23.0103 27.6533 23.1843 27.461C24.605 25.9646 25.9146 24.3656 27.3007 22.8364C27.675 22.3788 28.1122 21.9783 28.4802 21.5144C28.0158 21.1339 27.4433 20.9289 26.9411 20.6076C26.3518 20.9743 25.9251 21.5334 25.427 22.0068C24.3796 23.0298 23.3647 24.0856 22.335 25.1265C21.9775 25.4985 21.491 25.6908 21.0705 25.9751C20.2957 26.4475 19.566 26.9875 18.8205 27.5054C18.2239 27.9101 17.7416 28.4554 17.1827 28.9088C16.7539 28.5358 16.3502 28.1299 16.0137 27.6702C16.3943 27.8288 16.7413 28.0528 17.0821 28.2832C18.8551 27.2539 20.497 25.9878 21.923 24.5072C23.1539 23.1904 24.2013 21.7173 25.2614 20.261C26.6234 18.3566 27.956 16.4322 29.3358 14.5405Z" fill="#FDEFDC"/>
<path d="M15.3382 24.6299C16.7421 22.6442 18.1324 20.6479 19.5877 18.7002C20.1046 19.4674 20.8071 20.0762 21.3953 20.7842C21.7738 21.2429 22.3022 21.5853 22.5623 22.1348C22.6975 22.4318 22.492 22.7118 22.3169 22.9359C22.0181 22.7784 21.7539 22.5681 21.4729 22.3842C21.3229 22.2722 21.1112 22.2511 20.9528 22.3567C20.503 22.6178 20.0983 22.9792 19.5845 23.1123C18.9974 23.3142 18.6147 22.2257 18.0537 22.7097C16.8123 23.888 15.6904 25.1911 14.4207 26.3409C14.253 26.4899 14.0579 26.5998 13.8682 26.715C14.297 25.9773 14.86 25.3337 15.3382 24.6299Z" fill="#FDEFDC"/>
<path d="M26.6024 21.3875C26.7733 21.1751 27.0291 21.2913 27.2377 21.3632C26.9127 21.8514 26.4419 22.2065 26.0152 22.5986C25.1932 23.3806 24.3303 24.1278 23.3594 24.7164C23.8385 24.0992 24.4687 23.6258 24.9793 23.0372C25.5266 22.4929 26.0498 21.9243 26.6024 21.3875Z" fill="#FDEFDC"/>
<path d="M19.0375 24.0191C19.2598 23.7696 19.5817 23.6714 19.9057 23.6523C19.5135 24.4693 18.8362 25.0917 18.2784 25.7913C17.7961 26.3049 17.3641 26.8693 16.8535 27.3554C16.5788 27.4019 16.2978 27.2814 16.021 27.2708C17.0443 26.2045 17.9754 25.0484 19.0375 24.0191Z" fill="#FDEFDC"/>
<path d="M39.4819 26.1709C39.8395 26.4203 40.1593 26.7225 40.4371 27.0607C41.5863 28.3099 42.5582 29.707 43.6633 30.9941C43.9454 31.3249 44.2064 31.6737 44.4319 32.0467C43.7661 31.6314 43.3351 30.9508 42.7847 30.4076C41.6429 29.0285 40.5095 27.6388 39.4819 26.1709Z" fill="#FDEFDC"/>
<ellipse cx="29.9999" cy="30.1188" rx="29.5282" ry="29.3263" stroke="#0671E0" stroke-width="2.016"/>
<path d="M12.0213 46.7929C11.4896 46.7929 11.0661 46.694 10.7508 46.4962C10.4355 46.2983 10.2099 46.0139 10.0739 45.643C9.93785 45.2721 9.86985 44.8331 9.86985 44.3261V41.5162C9.86985 41.0093 9.93785 40.5765 10.0739 40.2179C10.2099 39.8532 10.4355 39.575 10.7508 39.3833C11.0661 39.1917 11.4896 39.0958 12.0213 39.0958C12.5654 39.0958 12.992 39.1917 13.3011 39.3833C13.6164 39.575 13.842 39.8532 13.9781 40.2179C14.1202 40.5765 14.1913 41.0093 14.1913 41.5162V44.3354C14.1913 44.8362 14.1202 45.2721 13.9781 45.643C13.842 46.0078 13.6164 46.2922 13.3011 46.4962C12.992 46.694 12.5654 46.7929 12.0213 46.7929ZM12.0213 45.7821C12.2501 45.7821 12.417 45.7326 12.5221 45.6337C12.6334 45.5348 12.7076 45.3988 12.7447 45.2257C12.7818 45.0526 12.8003 44.864 12.8003 44.66V41.2009C12.8003 40.9907 12.7818 40.8022 12.7447 40.6353C12.7076 40.4683 12.6334 40.3385 12.5221 40.2458C12.417 40.1468 12.2501 40.0974 12.0213 40.0974C11.8049 40.0974 11.6411 40.1468 11.5298 40.2458C11.4185 40.3385 11.3444 40.4683 11.3073 40.6353C11.2702 40.8022 11.2516 40.9907 11.2516 41.2009V44.66C11.2516 44.864 11.2671 45.0526 11.298 45.2257C11.3351 45.3988 11.4093 45.5348 11.5205 45.6337C11.6318 45.7326 11.7988 45.7821 12.0213 45.7821ZM15.9578 46.6909V40.1901H14.7615V39.1793H18.508V40.1901H17.3302V46.6909H15.9578ZM18.7648 48.184V45.7172H19.0337C19.1573 45.6492 19.2748 45.5595 19.3861 45.4483C19.5036 45.3308 19.6087 45.1762 19.7014 44.9846C19.7941 44.7929 19.8776 44.5487 19.9518 44.252C20.0321 43.949 20.1002 43.5812 20.1558 43.1484C20.2176 42.7156 20.264 42.2025 20.2949 41.609L20.4618 39.1793H23.7818V45.7172H24.57V48.184H23.6148L23.5314 46.6909H19.8312L19.7385 48.184H18.7648ZM20.3134 45.7172H22.4835V40.1623H21.5376L21.4541 41.8223C21.4294 42.4158 21.3892 42.9197 21.3335 43.3339C21.2779 43.7419 21.213 44.0819 21.1388 44.354C21.0646 44.6198 20.9811 44.8362 20.8884 45.0031C20.8019 45.17 20.7091 45.3061 20.6102 45.4112C20.5113 45.5163 20.4124 45.6183 20.3134 45.7172ZM25.341 46.6909V39.1793H26.7042V42.3323H27.038C27.5512 42.3323 27.9778 42.4034 28.3178 42.5456C28.6578 42.6816 28.9144 42.9104 29.0875 43.2319C29.2606 43.5472 29.3472 43.9738 29.3472 44.5116C29.3472 44.932 29.2915 45.2844 29.1802 45.5688C29.0751 45.847 28.9206 46.0696 28.7166 46.2365C28.5125 46.4034 28.2652 46.5209 27.9747 46.5889C27.6841 46.6569 27.3533 46.6909 26.9824 46.6909H25.341ZM26.7042 45.7636H26.9917C27.2513 45.7636 27.4615 45.7265 27.6223 45.6523C27.783 45.5781 27.9005 45.4483 27.9747 45.2628C28.0489 45.0711 28.0829 44.8115 28.0767 44.4838C28.0767 44.0943 27.9994 43.7976 27.8448 43.5935C27.6903 43.3895 27.3997 43.2875 26.9731 43.2875H26.7042V45.7636ZM30.052 46.6909V39.1793H31.4152V46.6909H30.052ZM32.0945 46.6909L33.6061 42.7033L32.1408 39.1793H33.4206L34.3943 41.507L35.2475 39.1793H36.4345L34.9878 42.9629L36.5458 46.6909H35.266L34.1996 44.1685L33.2722 46.6909H32.0945ZM36.8149 46.6909L38.3173 39.1793H39.7825L41.2848 46.6909H40.0143L39.7176 44.9568H38.41L38.104 46.6909H36.8149ZM38.5491 44.085H39.5692L39.0592 40.932L38.5491 44.085ZM42.0588 46.6909V39.1793H43.1809V43.9181L45.2397 39.1793H46.1577V46.6909H45.0264V41.8779L42.9583 46.6909H42.0588ZM44.2196 38.5858C43.7744 38.5858 43.4375 38.4652 43.2087 38.2241C42.9862 37.9768 42.8749 37.6461 42.8749 37.2318H43.5982C43.5982 37.4544 43.6446 37.6244 43.7373 37.7419C43.8301 37.8594 43.9908 37.9181 44.2196 37.9181C44.4421 37.9181 44.5998 37.8594 44.6925 37.7419C44.7852 37.6182 44.8316 37.4482 44.8316 37.2318H45.555C45.555 37.6461 45.4406 37.9768 45.2118 38.2241C44.9893 38.4652 44.6585 38.5858 44.2196 38.5858ZM47.5799 44.9289L47.1997 39.1886H48.4609L48.0158 44.9289H47.5799ZM47.1904 46.6909V45.4668H48.4146V46.6909H47.1904Z" fill="#E06E2E"/>
</g>
</svg>
