<svg width="48" height="48" viewBox="0 0 48 48" fill="none" xmlns="http://www.w3.org/2000/svg">
<path d="M24 0C10.7419 0 0 10.7419 0 24C0 37.2581 10.7419 48 24 48C37.2581 48 48 37.2581 48 24C48 10.7419 37.2581 0 24 0ZM35.7871 16.4419L31.8484 35.0032C31.5581 36.3194 30.7742 36.6387 29.6806 36.0194L23.6806 31.5968L20.7871 34.3839C20.4677 34.7032 20.1968 34.9742 19.5774 34.9742L20.0032 28.8677L31.1226 18.8226C31.6065 18.3968 31.0161 18.1548 30.3774 18.5806L16.6355 27.2323L10.7129 25.3839C9.42581 24.9774 9.39677 24.0968 10.9839 23.4774L34.1226 14.5548C35.1968 14.1677 36.1355 14.8161 35.7871 16.4419Z" fill="#EEF5FC"/>
</svg>
