<svg width="48" height="29" viewBox="0 0 48 29" fill="none" xmlns="http://www.w3.org/2000/svg">
<path d="M46.9061 1.96084C47.2358 0.831325 46.9061 0 45.3199 0H40.0715C38.7349 0 38.1201 0.713855 37.7904 1.50904C37.7904 1.50904 35.1172 8.11446 31.339 12.3976C30.1182 13.6355 29.5569 14.0331 28.8886 14.0331C28.5589 14.0331 28.051 13.6355 28.051 12.506V1.96084C28.051 0.605421 27.6767 0 26.5718 0H18.3204C17.4828 0 16.9838 0.63253 16.9838 1.21988C16.9838 2.50301 18.8729 2.8012 19.069 6.41566V14.259C19.069 15.9759 18.766 16.2922 18.0977 16.2922C16.3155 16.2922 11.9849 9.65964 9.41864 2.06928C8.90181 0.596386 8.3939 0 7.04838 0H1.79997C0.302965 0 0 0.713855 0 1.50904C0 2.91867 1.78214 9.92169 8.29588 19.1747C12.6354 25.491 18.7482 28.9157 24.3085 28.9157C27.65 28.9157 28.0599 28.1566 28.0599 26.8464C28.0599 20.8102 27.7569 20.241 29.4321 20.241C30.2074 20.241 31.544 20.6386 34.6627 23.6837C38.227 27.2982 38.8151 28.9157 40.8111 28.9157H46.0595C47.5565 28.9157 48.314 28.1566 47.8773 26.6566C46.8793 23.503 40.1339 17.0151 39.8309 16.5813C39.0557 15.5693 39.2785 15.1175 39.8309 14.2139C39.8398 14.2048 46.2467 5.06024 46.9061 1.96084Z" fill="#EEF5FC"/>
</svg>
